<svg xmlns="http://www.w3.org/2000/svg" viewBox="0 0 320 80" width="320" height="80" role="img" aria-label="Taller Isidro Pons - SPG desde 1925">
  <rect x="4" y="14" width="52" height="52" rx="12" fill="#1a4179"/>
  <g fill="none" stroke="#ffffff" stroke-width="2.2" stroke-linecap="round" stroke-linejoin="round" transform="translate(18 28)">
    <path d="M14.7 4.3a1 1 0 0 0 0 1.4l1.6 1.6a1 1 0 0 0 1.4 0l3.77-3.77a6 6 0 0 1-7.94 7.94l-6.91 6.91a2.12 2.12 0 0 1-3-3l6.91-6.91a6 6 0 0 1 7.94-7.94l-3.76 3.76z"/>
  </g>
  <text x="72" y="42" font-family="'Segoe UI', Arial, sans-serif" font-size="23" font-weight="800" fill="#122a4d">Taller Isidro Pons</text>
  <text x="73" y="60" font-family="'Segoe UI', Arial, sans-serif" font-size="11" font-weight="700" letter-spacing="3" fill="#2e69b4">SPG · DESDE 1925</text>
</svg>
