<svg xmlns="http://www.w3.org/2000/svg" viewBox="0 0 360 80" width="360" height="80" role="img" aria-label="Taller Isidro Pons - SPG Talleres">
  <rect x="36.10" y="14.00" width="7.80" height="13.00" rx="2.73" fill="#1a4179" transform="rotate(0 40 40)"/><rect x="36.10" y="14.00" width="7.80" height="13.00" rx="2.73" fill="#1a4179" transform="rotate(40 40 40)"/><rect x="36.10" y="14.00" width="7.80" height="13.00" rx="2.73" fill="#1a4179" transform="rotate(80 40 40)"/><rect x="36.10" y="14.00" width="7.80" height="13.00" rx="2.73" fill="#1a4179" transform="rotate(120 40 40)"/><rect x="36.10" y="14.00" width="7.80" height="13.00" rx="2.73" fill="#1a4179" transform="rotate(160 40 40)"/><rect x="36.10" y="14.00" width="7.80" height="13.00" rx="2.73" fill="#1a4179" transform="rotate(200 40 40)"/><rect x="36.10" y="14.00" width="7.80" height="13.00" rx="2.73" fill="#1a4179" transform="rotate(240 40 40)"/><rect x="36.10" y="14.00" width="7.80" height="13.00" rx="2.73" fill="#1a4179" transform="rotate(280 40 40)"/><rect x="36.10" y="14.00" width="7.80" height="13.00" rx="2.73" fill="#1a4179" transform="rotate(320 40 40)"/><circle cx="40" cy="40" r="21.32" fill="#1a4179"/><circle cx="40" cy="40" r="10.40" fill="#ffffff"/><circle cx="40" cy="40" r="4.42" fill="#f1880f"/>
  <text x="78" y="40" font-family="'Segoe UI', Arial, sans-serif" font-size="23" font-weight="600" fill="#122a4d">Taller Isidro Pons</text>
  <text x="79" y="59" font-family="'Segoe UI', Arial, sans-serif" font-size="10.5" font-weight="400" letter-spacing="4" fill="#2e69b4">SPG TALLERES</text>
</svg>
