<svg xmlns="http://www.w3.org/2000/svg" viewBox="0 0 32 32" width="32" height="32">
  <defs><linearGradient id="bg" x1="0" y1="0" x2="1" y2="1"><stop offset="0" stop-color="#1f5197"/><stop offset="1" stop-color="#122a4d"/></linearGradient></defs>
  <rect width="32" height="32" rx="7" fill="url(#bg)"/>
  <rect x="14.35" y="5.00" width="3.30" height="5.50" rx="1.15" fill="#f7a524" transform="rotate(0 16 16)"/><rect x="14.35" y="5.00" width="3.30" height="5.50" rx="1.15" fill="#f7a524" transform="rotate(40 16 16)"/><rect x="14.35" y="5.00" width="3.30" height="5.50" rx="1.15" fill="#f7a524" transform="rotate(80 16 16)"/><rect x="14.35" y="5.00" width="3.30" height="5.50" rx="1.15" fill="#f7a524" transform="rotate(120 16 16)"/><rect x="14.35" y="5.00" width="3.30" height="5.50" rx="1.15" fill="#f7a524" transform="rotate(160 16 16)"/><rect x="14.35" y="5.00" width="3.30" height="5.50" rx="1.15" fill="#f7a524" transform="rotate(200 16 16)"/><rect x="14.35" y="5.00" width="3.30" height="5.50" rx="1.15" fill="#f7a524" transform="rotate(240 16 16)"/><rect x="14.35" y="5.00" width="3.30" height="5.50" rx="1.15" fill="#f7a524" transform="rotate(280 16 16)"/><rect x="14.35" y="5.00" width="3.30" height="5.50" rx="1.15" fill="#f7a524" transform="rotate(320 16 16)"/><circle cx="16" cy="16" r="9.02" fill="#f7a524"/><circle cx="16" cy="16" r="4.40" fill="#1a4179"/><circle cx="16" cy="16" r="1.87" fill="#ffffff"/>
</svg>
